<svg xmlns="http://www.w3.org/2000/svg">
  <symbol id="mode-live" viewBox="0 0 24 24"><circle cx="12" cy="12" r="8" fill="none" stroke="currentColor" stroke-width="1.8"/><circle cx="12" cy="12" r="3" fill="currentColor"/></symbol>
  <symbol id="mode-forecast" viewBox="0 0 24 24"><circle cx="12" cy="12" r="8" fill="none" stroke="currentColor" stroke-width="1.8"/><path d="M12 4 A8 8 0 0 1 12 20 Z" fill="currentColor" opacity=".5"/><path d="M12 8v4l3 2" fill="none" stroke="currentColor" stroke-width="1.8" stroke-linecap="round"/></symbol>
  <symbol id="mode-events" viewBox="0 0 24 24"><path d="M12 3 L21 19 H3 Z" fill="none" stroke="currentColor" stroke-width="1.8" stroke-linejoin="round"/><circle cx="12" cy="14.5" r="1.6" fill="currentColor"/></symbol>
  <symbol id="mode-flow" viewBox="0 0 24 24"><path d="M3 8 C7 5 9 11 13 8 S19 5 21 8 M3 14 C7 11 9 17 13 14 S19 11 21 14" fill="none" stroke="currentColor" stroke-width="1.8" stroke-linecap="round"/></symbol>
  <symbol id="mode-policy" viewBox="0 0 24 24"><rect x="4" y="4" width="16" height="16" fill="none" stroke="currentColor" stroke-width="1.8"/><path d="M4 12h8V4M12 12v8h8" fill="none" stroke="currentColor" stroke-width="1.8"/></symbol>
  <symbol id="layer-stations" viewBox="0 0 24 24"><path d="M12 6v13M8 9h8M9.5 12h5" fill="none" stroke="currentColor" stroke-width="1.8" stroke-linecap="round"/><circle cx="12" cy="5" r="1.6" fill="currentColor"/><path d="M7 20h10" stroke="currentColor" stroke-width="1.8" stroke-linecap="round"/></symbol>
  <symbol id="layer-predictions" viewBox="0 0 24 24"><circle cx="12" cy="12" r="8" fill="none" stroke="currentColor" stroke-width="3" opacity=".45"/><circle cx="12" cy="12" r="2.2" fill="currentColor"/></symbol>
  <symbol id="layer-wind" viewBox="0 0 24 24"><path d="M3 9h11a2.5 2.5 0 1 0-2.5-2.5M3 14h14a2.5 2.5 0 1 1-2.5 2.5M3 19h7" fill="none" stroke="currentColor" stroke-width="1.8" stroke-linecap="round"/></symbol>
  <symbol id="layer-fires" viewBox="0 0 24 24"><path d="M12 3c2 4 6 6 6 11a6 6 0 0 1-12 0c0-3 2-4 3-6 1 3 3 3 3 0z" fill="none" stroke="currentColor" stroke-width="1.8" stroke-linejoin="round"/></symbol>
  <symbol id="layer-pollen" viewBox="0 0 24 24"><circle cx="12" cy="12" r="3.5" fill="currentColor"/><path d="M12 3v3M12 18v3M3 12h3M18 12h3M5.6 5.6l2.1 2.1M16.3 16.3l2.1 2.1M18.4 5.6l-2.1 2.1M7.7 16.3l-2.1 2.1" stroke="currentColor" stroke-width="1.8" stroke-linecap="round"/></symbol>
  <symbol id="layer-grid" viewBox="0 0 24 24"><circle cx="12" cy="12" r="9" fill="none" stroke="currentColor" stroke-width="1.6"/><ellipse cx="12" cy="12" rx="4" ry="9" fill="none" stroke="currentColor" stroke-width="1.4"/><path d="M3 12h18M5 7.5h14M5 16.5h14" stroke="currentColor" stroke-width="1.4"/></symbol>
  <symbol id="layer-field" viewBox="0 0 24 24"><rect x="3" y="3" width="18" height="18" fill="none" stroke="currentColor" stroke-width="1.6"/><path d="M3 15c4-6 8 2 12-4s6 0 6 0" fill="none" stroke="currentColor" stroke-width="1.8"/></symbol>
  <symbol id="view-globe" viewBox="0 0 24 24"><circle cx="12" cy="12" r="9" fill="none" stroke="currentColor" stroke-width="1.8"/><ellipse cx="12" cy="12" rx="4" ry="9" fill="none" stroke="currentColor" stroke-width="1.5"/><path d="M3 12h18" stroke="currentColor" stroke-width="1.5"/></symbol>
  <symbol id="view-map" viewBox="0 0 24 24"><path d="M3 6l6-2 6 2 6-2v14l-6 2-6-2-6 2z M9 4v14M15 6v14" fill="none" stroke="currentColor" stroke-width="1.8" stroke-linejoin="round"/></symbol>
  <symbol id="view-table" viewBox="0 0 24 24"><rect x="3" y="4" width="18" height="16" fill="none" stroke="currentColor" stroke-width="1.8"/><path d="M3 10h18M3 15h18M10 4v16" stroke="currentColor" stroke-width="1.5"/></symbol>
  <symbol id="zoom-in" viewBox="0 0 24 24"><circle cx="11" cy="11" r="7" fill="none" stroke="currentColor" stroke-width="1.8"/><path d="M11 8v6M8 11h6M16.5 16.5L21 21" stroke="currentColor" stroke-width="1.8" stroke-linecap="round"/></symbol>
  <symbol id="zoom-out" viewBox="0 0 24 24"><circle cx="11" cy="11" r="7" fill="none" stroke="currentColor" stroke-width="1.8"/><path d="M8 11h6M16.5 16.5L21 21" stroke="currentColor" stroke-width="1.8" stroke-linecap="round"/></symbol>
  <symbol id="reset-north" viewBox="0 0 24 24"><circle cx="12" cy="12" r="9" fill="none" stroke="currentColor" stroke-width="1.8"/><path d="M12 5l3 8-3-1.5L9 13z" fill="currentColor"/></symbol>
  <symbol id="pin" viewBox="0 0 24 24"><path d="M12 21s-6-5.5-6-11a6 6 0 0 1 12 0c0 5.5-6 11-6 11z" fill="none" stroke="currentColor" stroke-width="1.8"/><circle cx="12" cy="10" r="2.2" fill="currentColor"/></symbol>
  <symbol id="compare" viewBox="0 0 24 24"><rect x="3" y="5" width="7" height="14" fill="none" stroke="currentColor" stroke-width="1.8"/><rect x="14" y="5" width="7" height="14" fill="none" stroke="currentColor" stroke-width="1.8"/><path d="M6.5 9v6M17.5 9v6" stroke="currentColor" stroke-width="1.8" stroke-linecap="round"/></symbol>
  <symbol id="fullscreen" viewBox="0 0 24 24"><path d="M4 9V4h5M15 4h5v5M20 15v5h-5M9 20H4v-5" fill="none" stroke="currentColor" stroke-width="1.8" stroke-linecap="round"/></symbol>
  <symbol id="keyboard" viewBox="0 0 24 24"><rect x="3" y="6" width="18" height="12" fill="none" stroke="currentColor" stroke-width="1.8"/><path d="M7 10h.01M11 10h.01M15 10h.01M7 14h10" stroke="currentColor" stroke-width="1.8" stroke-linecap="round"/></symbol>
  <symbol id="status-stale" viewBox="0 0 24 24"><circle cx="12" cy="12" r="8" fill="none" stroke="currentColor" stroke-width="1.8" stroke-dasharray="3 3"/><path d="M12 8v4l2.5 2" fill="none" stroke="currentColor" stroke-width="1.8" stroke-linecap="round"/></symbol>
  <symbol id="status-satellite" viewBox="0 0 24 24"><rect x="9" y="9" width="6" height="6" fill="none" stroke="currentColor" stroke-width="1.8" transform="rotate(45 12 12)"/><path d="M4 12h3M17 12h3M12 4v3M12 17v3" stroke="currentColor" stroke-width="1.8" stroke-linecap="round"/></symbol>
  <symbol id="dqss-band" viewBox="0 0 24 24"><circle cx="12" cy="12" r="8" fill="none" stroke="currentColor" stroke-width="4" opacity=".4"/><circle cx="12" cy="12" r="2.2" fill="currentColor"/></symbol>
</svg>
